<?xml version="1.0" standalone="no"?>
<!DOCTYPE svg PUBLIC "-//W3C//DTD SVG 1.1//EN" "http://www.w3.org/Graphics/SVG/1.1/DTD/svg11.dtd">
<svg width="100%" height="100%" viewBox="0 0 100 100" version="1.1" xmlns="http://www.w3.org/2000/svg" xmlns:xlink="http://www.w3.org/1999/xlink" xml:space="preserve" style="fill-rule:evenodd;clip-rule:evenodd;stroke-linejoin:round;stroke-miterlimit:1.41421;">
    <g transform="matrix(1,0,0,1,0,-952.362)">
        <path d="M49.406,958.456L17.406,968.456C16.599,968.707 16.002,969.517 16,970.362L16,1008.36C16,1016.23 20.657,1023.17 26.969,1029.33C33.281,1035.5 41.363,1041.01 48.875,1046.02C49.203,1046.24 49.608,1046.36 50,1046.36C50.392,1046.36 50.79,1046.24 51.125,1046.02C58.637,1041.01 66.719,1035.5 73.031,1029.33C79.343,1023.17 84,1016.23 84,1008.36L84,970.362C83.998,969.517 83.401,968.707 82.594,968.456L50.594,958.456C50.363,958.384 50.2,958.362 50,958.362C49.8,958.362 49.591,958.398 49.406,958.456ZM50,962.456L80,971.831L80,1008.36C80,1014.63 76.157,1020.65 70.219,1026.46C64.578,1031.97 57.146,1037.11 50,1041.89C42.854,1037.11 35.422,1031.97 29.781,1026.46C23.843,1020.65 20,1014.63 20,1008.36L20,971.831L50,962.456ZM61.813,978.331C61.237,978.396 60.697,978.725 60.375,979.206L36.375,1013.21C35.619,1014.04 35.787,1015.53 36.711,1016.18C37.635,1016.83 39.094,1016.48 39.625,1015.49L63.625,981.487C64.069,980.868 64.113,979.987 63.733,979.326C63.354,978.666 62.571,978.26 61.813,978.331ZM41,978.362C37.158,978.362 34,981.52 34,985.362C34,989.204 37.158,992.362 41,992.362C44.842,992.362 48,989.204 48,985.362C48,981.52 44.842,978.362 41,978.362ZM41,982.362C42.681,982.362 44,983.682 44,985.362C44,987.043 42.681,988.362 41,988.362C39.319,988.362 38,987.043 38,985.362C38,983.682 39.319,982.362 41,982.362ZM59,1002.36C55.158,1002.36 52,1005.52 52,1009.36C52,1013.2 55.158,1016.36 59,1016.36C62.842,1016.36 66,1013.2 66,1009.36C66,1005.52 62.842,1002.36 59,1002.36ZM59,1006.36C60.681,1006.36 62,1007.68 62,1009.36C62,1011.04 60.681,1012.36 59,1012.36C57.319,1012.36 56,1011.04 56,1009.36C56,1007.68 57.319,1006.36 59,1006.36Z" style="fill:rgb(56,77,114);fill-rule:nonzero;"/>
    </g>
</svg>
