<?xml version="1.0" standalone="no"?>
<!DOCTYPE svg PUBLIC "-//W3C//DTD SVG 1.1//EN" "http://www.w3.org/Graphics/SVG/1.1/DTD/svg11.dtd">
<svg width="100%" height="100%" viewBox="0 0 100 100" version="1.1" xmlns="http://www.w3.org/2000/svg" xmlns:xlink="http://www.w3.org/1999/xlink" xml:space="preserve" style="fill-rule:evenodd;clip-rule:evenodd;stroke-linejoin:round;stroke-miterlimit:1.41421;">
    <g transform="matrix(1,0,0,1,0,-952.362)">
        <path d="M50,959.362C46.139,959.362 43,962.501 43,966.362L43,969.362L35.25,969.362C33.467,969.362 32,970.829 32,972.612L32,975.362L22,975.362C21.336,975.362 21,975.943 21,976.362L21,1044.36C21,1044.89 21.476,1045.36 22,1045.36L78,1045.36C78.524,1045.36 79,1044.89 79,1044.36L79,976.362C79,975.839 78.524,975.362 78,975.362L68,975.362L68,972.612C68,970.829 66.533,969.362 64.75,969.362L57,969.362L57,966.362C57,962.501 53.861,959.362 50,959.362L50,959.362ZM50,961.362C52.787,961.362 55,963.575 55,966.362L55,970.362C55,970.886 55.476,971.362 56,971.362L64.75,971.362C65.467,971.362 66,971.896 66,972.612L66,980.112C66,980.829 65.467,981.362 64.75,981.362L35.25,981.362C34.533,981.362 34,980.829 34,980.112L34,972.612C34,971.896 34.533,971.362 35.25,971.362L44,971.362C44.524,971.362 45,970.886 45,970.362L45,966.362C45,963.575 47.213,961.362 50,961.362ZM23,977.362L32,977.362L32,980.112C32,981.896 33.467,983.362 35.25,983.362L64.75,983.362C66.533,983.362 68,981.896 68,980.112L68,977.362L77,977.362L77,1043.36L23,1043.36L23,977.362ZM31,994.362C31,994.85 31.474,995.362 32,995.362L68,995.362C68.528,995.37 69.014,994.891 69.014,994.362C69.014,993.834 68.528,993.355 68,993.362L32,993.362C31.262,993.362 31,993.927 31,994.362ZM31,1006.36C31,1006.92 31.476,1007.41 32,1007.36L68,1007.36C68.528,1007.37 69.014,1006.89 69.014,1006.36C69.014,1005.83 68.528,1005.36 68,1005.36L32,1005.36C31.296,1005.36 31,1005.9 31,1006.36ZM68,1016.36C67.688,1016.36 67.311,1016.55 67.156,1016.8L57.906,1030.67L53.781,1025.71C53.592,1025.48 53.295,1025.36 53,1025.36C52.406,1025.36 52,1025.85 52,1026.36C52,1026.63 52.075,1026.82 52.219,1026.99L57.219,1032.99C57.414,1033.23 57.691,1033.38 58,1033.36C58.32,1033.35 58.672,1033.17 58.844,1032.89L68.844,1017.89C68.953,1017.74 69.008,1017.54 69,1017.36C68.976,1016.8 68.58,1016.36 68,1016.36ZM31,1018.36C31,1018.89 31.474,1019.36 32,1019.36L48,1019.36C48.528,1019.37 49.014,1018.89 49.014,1018.36C49.014,1017.83 48.528,1017.36 48,1017.36L32,1017.36C31.237,1017.36 31,1017.9 31,1018.36Z" style="fill:rgb(56,77,114);fill-rule:nonzero;"/>
    </g>
</svg>
