<?xml version="1.0" standalone="no"?>
<!DOCTYPE svg PUBLIC "-//W3C//DTD SVG 1.1//EN" "http://www.w3.org/Graphics/SVG/1.1/DTD/svg11.dtd">
<svg width="100%" height="100%" viewBox="0 0 100 100" version="1.1" xmlns="http://www.w3.org/2000/svg" xmlns:xlink="http://www.w3.org/1999/xlink" xml:space="preserve" style="fill-rule:evenodd;clip-rule:evenodd;stroke-linejoin:round;stroke-miterlimit:1.41421;">
    <g transform="matrix(1,0,0,1,0,-952.362)">
        <path d="M49,958.362C35.32,958.362 23.113,963.357 14.594,971.956C14.226,972.323 14,972.841 14,973.362C14,973.467 14.015,973.57 14.031,973.675C14.031,973.675 15.282,980.931 16.531,988.3C17.156,991.984 17.782,995.696 18.25,998.55C18.516,1000.19 18.775,1001.77 19,1003.36C20,1014.36 23.129,1023.23 28.25,1030.05C33.529,1036.89 40.821,1041.24 49,1041.24C57.179,1041.24 64.471,1036.89 69.75,1030.05C72.141,1026.95 74.127,1023.35 75.656,1019.36L76.687,1019.36L72.062,1037.86C71.679,1039.39 71.326,1040.65 70.844,1041.3C70.362,1041.95 69.873,1042.36 68,1042.36L62,1042.36C60.943,1042.35 59.971,1043.31 59.971,1044.36C59.971,1045.42 60.943,1046.38 62,1046.36L68,1046.36C70.735,1046.36 72.885,1045.27 74.062,1043.67C75.24,1042.08 75.565,1040.32 75.937,1038.83L80.812,1019.3C83.715,1018.89 86,1016.36 86,1013.36L86,1001.33C86,999.655 85.44,998.056 84.312,996.956C83.252,995.921 81.795,995.449 80.281,995.393C80.662,993.111 81.036,990.849 81.469,988.3C82.718,980.931 83.969,973.675 83.969,973.675C83.986,973.564 84.002,973.474 84,973.362C83.988,972.809 83.769,972.319 83.406,971.956C74.887,963.357 62.68,958.362 49,958.362L49,958.362ZM49,962.362C61.334,962.362 72.157,966.765 79.844,974.143C79.675,975.121 78.703,980.761 77.563,987.487C77.534,987.32 77.531,987.121 77.5,986.956C76.61,982.175 74.56,977.875 69.906,975.55C67.934,974.564 65.82,974.565 64,975.081C62.18,975.597 60.547,976.534 58.938,977.487C55.718,979.394 52.604,981.362 49,981.362C45.396,981.362 42.282,979.394 39.063,977.487C37.453,976.534 35.82,975.597 34,975.081C32.18,974.565 30.066,974.564 28.094,975.55C23.44,977.875 21.39,982.175 20.5,986.956C20.469,987.121 20.466,987.32 20.438,987.487C19.297,980.761 18.325,975.121 18.156,974.143C25.843,966.765 36.666,962.362 49,962.362L49,962.362ZM31.375,978.737C31.85,978.707 32.33,978.761 32.906,978.925C34.058,979.251 35.472,980.001 37.031,980.925C40.15,982.772 43.999,985.362 49,985.362C54.001,985.362 57.85,982.772 60.969,980.925C62.528,980.001 63.942,979.251 65.094,978.925C66.246,978.598 67.045,978.619 68.094,979.143C71.496,980.843 72.813,983.51 73.594,987.706C74.479,993.319 74.564,998.709 75,1003.36C74.434,1012.99 71.274,1021.52 66.594,1027.58C61.893,1033.67 55.768,1037.24 49,1037.24C42.232,1037.24 36.107,1033.67 31.406,1027.58C26.706,1021.49 23.546,1012.91 23,1003.24C23.609,997.209 23.639,991.827 24.406,987.706C25.188,983.51 26.504,980.843 29.906,979.143C30.43,978.881 30.9,978.767 31.375,978.737L31.375,978.737ZM79.625,999.362L80,999.362C80.831,999.362 81.271,999.577 81.531,999.831C81.792,1000.09 82,1000.47 82,1001.33L82,1013.36C82,1014.73 81.373,1015.36 80,1015.36L77,1015.36C79,1009.36 79,1004.36 79.625,999.362ZM37,1000.36C34.791,1000.36 33,1002.15 33,1004.36C33,1006.57 34.791,1008.36 37,1008.36C39.209,1008.36 41,1006.57 41,1004.36C41,1002.15 39.209,1000.36 37,1000.36ZM61,1000.36C58.791,1000.36 57,1002.15 57,1004.36C57,1006.57 58.791,1008.36 61,1008.36C63.209,1008.36 65,1006.57 65,1004.36C65,1002.15 63.209,1000.36 61,1000.36Z" style="fill:rgb(56,77,114);fill-rule:nonzero;"/>
    </g>
</svg>
