<?xml version="1.0" standalone="no"?>
<!DOCTYPE svg PUBLIC "-//W3C//DTD SVG 1.1//EN" "http://www.w3.org/Graphics/SVG/1.1/DTD/svg11.dtd">
<svg width="100%" height="100%" viewBox="0 0 100 100" version="1.1" xmlns="http://www.w3.org/2000/svg" xmlns:xlink="http://www.w3.org/1999/xlink" xml:space="preserve" style="fill-rule:evenodd;clip-rule:evenodd;stroke-linejoin:round;stroke-miterlimit:1.41421;">
    <g>
        <path d="M74.5,40L64,40L64,34L45.8,34C43.2,28.3 37.4,24.3 30.7,24.3C21.5,24.3 14,31.8 14,41C14,46.6 16.8,51.5 21,54.5L21,70L25.8,70C26.3,73.2 29.1,75.7 32.5,75.7C35.9,75.7 38.7,73.2 39.2,70L65.8,70C66.3,73.2 69.1,75.7 72.5,75.7C75.9,75.7 78.7,73.2 79.2,70L86,70L86,55.1L74.5,40ZM80.3,51L70,51L70,46L76.5,46L80.3,51ZM16,41C16,32.9 22.6,26.3 30.7,26.3C38.8,26.3 45.4,32.9 45.4,41C45.4,49.1 38.8,55.7 30.7,55.7C22.6,55.6 16,49 16,41ZM32.5,73.7C29.9,73.7 27.7,71.6 27.7,68.9C27.7,66.2 29.8,64.1 32.5,64.1C35.2,64.1 37.3,66.2 37.3,68.9C37.3,71.6 35.1,73.7 32.5,73.7ZM62,68L39.1,68C38.6,64.7 35.8,62.2 32.4,62.2C29,62.2 26.2,64.7 25.7,68L23,68L23,55.7C25.3,56.9 27.9,57.6 30.7,57.6C34.1,57.6 37.3,56.6 40,54.8L40,55L58,55L58,53L42.2,53C43.7,51.6 44.9,49.9 45.8,48L58,48L58,46L46.6,46C47.1,44.4 47.4,42.7 47.4,41L58,41L58,39L47.2,39C47.1,38 46.9,37 46.6,36L62,36L62,68ZM72.5,73.7C69.9,73.7 67.7,71.6 67.7,68.9C67.7,66.2 69.8,64.1 72.5,64.1C75.2,64.1 77.3,66.2 77.3,68.9C77.3,71.6 75.1,73.7 72.5,73.7ZM79.1,68C78.6,64.7 75.8,62.2 72.4,62.2C69,62.2 66.2,64.7 65.7,68L64,68L64,42L73.5,42L75,44L68,44L68,53L81.9,53L84,55.8L84,58.1C82.4,58.6 81,60.1 81,61.9C81,63.7 82.4,65.3 84,65.7L84,68L79.1,68ZM84,60.3L84,63.7C83.4,63.3 83,62.7 83,62C83,61.3 83.4,60.6 84,60.3Z" style="fill:rgb(56,77,114);fill-rule:nonzero;"/>
        <path d="M30.7,43.2C31.8,43.2 32.7,42.3 32.7,41.2C32.7,40.6 32.4,40.1 32,39.7L32,30L30,30L30,39.3C29.2,39.6 28.7,40.3 28.7,41.2C28.7,41.4 28.7,41.5 28.8,41.7L24.3,46.2L25.7,47.6L30.2,43.1C30.4,43.2 30.5,43.2 30.7,43.2Z" style="fill:rgb(56,77,114);fill-rule:nonzero;"/>
        <rect x="27" y="60" width="31" height="2" style="fill:rgb(56,77,114);"/>
    </g>
</svg>
