<?xml version="1.0" standalone="no"?>
<!DOCTYPE svg PUBLIC "-//W3C//DTD SVG 1.1//EN" "http://www.w3.org/Graphics/SVG/1.1/DTD/svg11.dtd">
<svg width="100%" height="100%" viewBox="0 0 100 100" version="1.1" xmlns="http://www.w3.org/2000/svg" xmlns:xlink="http://www.w3.org/1999/xlink" xml:space="preserve" style="fill-rule:evenodd;clip-rule:evenodd;stroke-linejoin:round;stroke-miterlimit:1.41421;">
    <g transform="matrix(1,0,0,1,0,-952.362)">
        <path d="M35,970.362C35,970.456 35.281,971.362 35.281,971.362L12,971.362C11.309,971.362 11,971.912 11,972.362C11,973.085 11.593,973.362 12,973.362L35.938,973.362L42.656,994.362L34.5,994.362L27.781,985.737C27.595,985.504 27.299,985.362 27,985.362L18,985.362C17.378,985.356 16.856,986.047 17.031,986.643L17.25,987.362L8,987.362C7.31,987.362 7,987.912 7,988.362C7,989.061 7.593,989.362 8,989.362L17.875,989.362L21.938,1002.36L17.875,1015.36L8,1015.36C7.301,1015.36 7,1015.92 7,1016.36C7,1017.07 7.595,1017.36 8,1017.36L17.25,1017.36L17.031,1018.05C16.833,1018.65 17.364,1019.37 18,1019.36L27,1019.36C27.304,1019.35 27.601,1019.2 27.781,1018.96L34.469,1010.36L42.656,1010.36L35.938,1031.36L12,1031.36C11.294,1031.36 11,1031.92 11,1032.36C11,1033.09 11.559,1033.36 12,1033.36L35.281,1033.36L35.063,1034.05C34.867,1034.64 35.375,1035.35 36,1035.36L45,1035.36C45.342,1035.35 45.673,1035.16 45.844,1034.86L60.531,1010.36L82,1010.36C85.492,1010.36 88.185,1009.7 90.094,1008.33C92.003,1006.96 93,1004.85 93,1002.36C93,999.711 91.608,997.58 89.563,996.268C87.517,994.957 84.846,994.362 82,994.362L60.563,994.362L45.844,969.831C45.665,969.546 45.336,969.363 45,969.362L36,969.362C35.303,969.362 35,969.942 35,970.362ZM37.344,971.362L44.469,971.362L59.156,995.862C59.327,996.158 59.658,996.354 60,996.362L82,996.362C84.555,996.362 86.896,996.928 88.5,997.956C90.104,998.984 91,1000.37 91,1002.36C91,1004.36 90.345,1005.7 88.938,1006.71C87.53,1007.72 85.243,1008.36 82,1008.36L60,1008.36C59.664,1008.36 59.335,1008.55 59.156,1008.83L44.438,1033.36L37.344,1033.36L44.938,1009.64C45.11,1009.06 44.611,1008.38 44,1008.36L34,1008.36C33.701,1008.36 33.405,1008.5 33.219,1008.74L26.5,1017.36L19.375,1017.36L23.969,1002.64C24.028,1002.45 24.028,1002.24 23.969,1002.05L19.375,987.362L26.531,987.362L33.219,995.956C33.399,996.201 33.696,996.355 34,996.362L44,996.362C44.625,996.354 45.133,995.644 44.938,995.05L37.344,971.362Z" style="fill:rgb(56,77,114);fill-rule:nonzero;"/>
    </g>
</svg>
